<?xml version="1.0" standalone="yes"?>
<svg viewBox="0 0 160 160" version="1.1" id="svg_null" xmlns="http://www.w3.org/2000/svg">
    <g id="root" stroke="none" stroke-width="1" fill="none" fill-rule="evenodd">
        <circle id="shape.secondary" fill="#fbe8d3" cx="80" cy="80" r="60"> </circle>
        <path d="M80 144c35.346 0 64 -28.654 64 -64c0 -35.346 -28.654 -64 -64 -64c-35.346 0 -64 28.654 -64 64c0 35.346 28.654 64 64 64zm0 2c-36.45 0 -66 -29.55 -66 -66c0 -36.45 29.55 -66 66 -66c36.45 0 66 29.55 66 66c0 36.45 -29.55 66 -66 66z" id="shape.secondary" fill="#fbe8d3" fill-rule="nonzero"></path>
        <rect id="icon.primary" x="67" y="54" width="26" height="26" display="none" fill="#f85f73"> </rect>
        <path
            style=" "
            transform="translate(60, 50) scale(1.5)"
            fill="#f85f73"
            d="M 7.90625 -0.03125 C 7.863281 -0.0234375 7.820313 -0.0117188 7.78125 0 C 7.316406 0.105469 6.988281 0.523438 7 1 C 7 2.191406 6.191406 3 5 3 L 4 3 C 1.789063 3 0 4.789063 0 7 C 0 9.210938 1.789063 11 4 11 L 4 24.5 C 4 25.300781 4.699219 26 5.5 26 C 6.300781 26 7 25.300781 7 24.5 L 7 16.5 C 7 14.601563 8.601563 13 10.5 13 C 12.398438 13 14 14.601563 14 16.5 L 14 24.5 C 14 25.300781 14.699219 26 15.5 26 C 16.300781 26 17 25.300781 17 24.5 L 17 16 C 17 15.398438 17.398438 15 18 15 C 18.601563 15 19 15.398438 19 16 L 19 24.5 C 19 25.300781 19.699219 26 20.5 26 C 21.300781 26 22 25.300781 22 24.5 L 22 10.84375 C 24.257813 10.628906 26 9.046875 26 7.09375 L 26 1.40625 L 23.8125 3.59375 C 23.113281 3.195313 22.300781 3 21.5 3 C 20.699219 3 19.886719 3.199219 19.1875 3.5 L 17 1.40625 L 17 7 C 17 8.882813 18.476563 10.382813 20.46875 10.78125 C 18.691406 10.734375 16 10.09375 16 6.59375 C 15 6.292969 12 5 11 5 C 6.601563 5 4 9 4 9 C 2.808594 9 2 8.191406 2 7 C 2 5.808594 2.808594 5 4 5 L 5 5 C 7.210938 5 9 3.210938 9 1 C 9.011719 0.710938 8.894531 0.433594 8.6875 0.238281 C 8.476563 0.0390625 8.191406 -0.0585938 7.90625 -0.03125 Z M 20 6 C 20.601563 6 21 6.398438 21 7 C 21 7.601563 20.601563 8 20 8 C 19.398438 8 19 7.601563 19 7 C 19 6.398438 19.398438 6 20 6 Z M 23 6 C 23.601563 6 24 6.398438 24 7 C 24 7.601563 23.601563 8 23 8 C 22.398438 8 22 7.601563 22 7 C 22 6.398438 22.398438 6 23 6 Z M 10.5 14 C 9.101563 14 8 15.101563 8 16.5 L 8 24.5 C 8 25.300781 8.699219 26 9.5 26 C 10.300781 26 11 25.300781 11 24.5 L 11 14.09375 C 10.800781 13.992188 10.699219 14 10.5 14 Z "> </path>
        <g id="group" transform="translate(12.000000, 90.000000)">
            <text id="headerText.primary" font-family="SFProText-Semibold, SF Pro Text" font-size="12" font-weight="500" letter-spacing=".81" fill="#f85f73" data-text-alignment="C">
                <tspan x="33.508" y="17">RemoteCat</tspan>
            </text>
        </g>
    </g>
</svg>